<mxfile host="app.diagrams.net" agent="Mozilla/5.0 (Windows NT 10.0; Win64; x64) AppleWebKit/537.36 (KHTML, like Gecko) Chrome/127.0.0.0 Safari/537.36" version="24.7.16">
  <diagram name="Página-1" id="tiBQRzHIz571m-Tfv3ui">
    <mxGraphModel dx="1467" dy="2567" grid="1" gridSize="10" guides="1" tooltips="1" connect="1" arrows="1" fold="1" page="1" pageScale="1" pageWidth="3200" pageHeight="1800" math="0" shadow="0">
      <root>
        <mxCell id="0" />
        <mxCell id="1" parent="0" />
        <mxCell id="mFdrTynE0yzVZ5rLT7oj-1" value="Video-Aulas" style="whiteSpace=wrap;html=1;align=center;fillColor=#dae8fc;strokeColor=#6c8ebf;" parent="1" vertex="1">
          <mxGeometry x="830" y="370" width="100" height="40" as="geometry" />
        </mxCell>
        <mxCell id="mFdrTynE0yzVZ5rLT7oj-2" value="Atividades" style="whiteSpace=wrap;html=1;align=center;fillColor=#dae8fc;strokeColor=#6c8ebf;" parent="1" vertex="1">
          <mxGeometry x="190" y="-28.569999999999993" width="100" height="40" as="geometry" />
        </mxCell>
        <mxCell id="mFdrTynE0yzVZ5rLT7oj-3" value="&lt;font style=&quot;vertical-align: inherit;&quot;&gt;&lt;font style=&quot;vertical-align: inherit;&quot;&gt;Cursos&lt;/font&gt;&lt;/font&gt;" style="whiteSpace=wrap;html=1;align=center;fillColor=#dae8fc;strokeColor=#6c8ebf;" parent="1" vertex="1">
          <mxGeometry x="610" y="130" width="100" height="40" as="geometry" />
        </mxCell>
        <mxCell id="mFdrTynE0yzVZ5rLT7oj-5" value="Administrador" style="whiteSpace=wrap;html=1;align=center;fillColor=#dae8fc;strokeColor=#6c8ebf;" parent="1" vertex="1">
          <mxGeometry x="660" y="600" width="100" height="40" as="geometry" />
        </mxCell>
        <mxCell id="mFdrTynE0yzVZ5rLT7oj-7" value="Professores" style="whiteSpace=wrap;html=1;align=center;fillColor=#dae8fc;strokeColor=#6c8ebf;" parent="1" vertex="1">
          <mxGeometry x="570" y="730" width="100" height="40" as="geometry" />
        </mxCell>
        <mxCell id="mFdrTynE0yzVZ5rLT7oj-8" value="Alunos" style="whiteSpace=wrap;html=1;align=center;fillColor=#dae8fc;strokeColor=#6c8ebf;" parent="1" vertex="1">
          <mxGeometry x="1350" y="-3.75" width="100" height="40" as="geometry" />
        </mxCell>
        <mxCell id="mFdrTynE0yzVZ5rLT7oj-10" value="Analise de Desempenho" style="shape=ext;margin=3;double=1;whiteSpace=wrap;html=1;align=center;fillColor=#dae8fc;strokeColor=#6c8ebf;" parent="1" vertex="1">
          <mxGeometry x="1350" y="756.25" width="100" height="40" as="geometry" />
        </mxCell>
        <mxCell id="mFdrTynE0yzVZ5rLT7oj-11" value="Comentários" style="shape=ext;margin=3;double=1;whiteSpace=wrap;html=1;align=center;fillColor=#dae8fc;strokeColor=#6c8ebf;" parent="1" vertex="1">
          <mxGeometry x="190" y="730" width="100" height="40" as="geometry" />
        </mxCell>
        <mxCell id="mFdrTynE0yzVZ5rLT7oj-18" value="Cria" style="shape=rhombus;perimeter=rhombusPerimeter;whiteSpace=wrap;html=1;align=center;fillColor=#fff2cc;strokeColor=#d6b656;" parent="1" vertex="1">
          <mxGeometry x="260" y="335" width="120" height="60" as="geometry" />
        </mxCell>
        <mxCell id="mFdrTynE0yzVZ5rLT7oj-19" value="Tem" style="shape=rhombus;perimeter=rhombusPerimeter;whiteSpace=wrap;html=1;align=center;fillColor=#fff2cc;strokeColor=#d6b656;" parent="1" vertex="1">
          <mxGeometry x="180" y="410" width="120" height="60" as="geometry" />
        </mxCell>
        <mxCell id="mFdrTynE0yzVZ5rLT7oj-20" value="Analisa" style="shape=rhombus;perimeter=rhombusPerimeter;whiteSpace=wrap;html=1;align=center;fillColor=#fff2cc;strokeColor=#d6b656;" parent="1" vertex="1">
          <mxGeometry x="1340" y="320" width="120" height="60" as="geometry" />
        </mxCell>
        <mxCell id="mFdrTynE0yzVZ5rLT7oj-21" value="Realizam" style="shape=rhombus;perimeter=rhombusPerimeter;whiteSpace=wrap;html=1;align=center;fillColor=#fff2cc;strokeColor=#d6b656;" parent="1" vertex="1">
          <mxGeometry x="700" y="-40" width="120" height="60" as="geometry" />
        </mxCell>
        <mxCell id="mFdrTynE0yzVZ5rLT7oj-22" value="" style="endArrow=none;html=1;rounded=0;entryX=0.5;entryY=0;entryDx=0;entryDy=0;exitX=0.5;exitY=1;exitDx=0;exitDy=0;" parent="1" source="mFdrTynE0yzVZ5rLT7oj-20" target="mFdrTynE0yzVZ5rLT7oj-10" edge="1">
          <mxGeometry relative="1" as="geometry">
            <mxPoint x="1050" y="414.82" as="sourcePoint" />
            <mxPoint x="1210" y="414.82" as="targetPoint" />
          </mxGeometry>
        </mxCell>
        <mxCell id="mFdrTynE0yzVZ5rLT7oj-23" value="" style="endArrow=none;html=1;rounded=0;entryX=0.5;entryY=1;entryDx=0;entryDy=0;exitX=0.5;exitY=0;exitDx=0;exitDy=0;" parent="1" source="mFdrTynE0yzVZ5rLT7oj-20" target="mFdrTynE0yzVZ5rLT7oj-8" edge="1">
          <mxGeometry relative="1" as="geometry">
            <mxPoint x="1050" y="414.82" as="sourcePoint" />
            <mxPoint x="1210" y="414.82" as="targetPoint" />
          </mxGeometry>
        </mxCell>
        <mxCell id="mFdrTynE0yzVZ5rLT7oj-24" value="" style="endArrow=none;html=1;rounded=0;exitX=1;exitY=0.5;exitDx=0;exitDy=0;entryX=0;entryY=0.5;entryDx=0;entryDy=0;" parent="1" source="mFdrTynE0yzVZ5rLT7oj-2" target="mFdrTynE0yzVZ5rLT7oj-21" edge="1">
          <mxGeometry relative="1" as="geometry">
            <mxPoint x="580" y="141.43" as="sourcePoint" />
            <mxPoint x="740" y="141.43" as="targetPoint" />
          </mxGeometry>
        </mxCell>
        <mxCell id="mFdrTynE0yzVZ5rLT7oj-25" value="" style="endArrow=none;html=1;rounded=0;entryX=0;entryY=0.5;entryDx=0;entryDy=0;exitX=1;exitY=0.5;exitDx=0;exitDy=0;" parent="1" source="mFdrTynE0yzVZ5rLT7oj-21" target="mFdrTynE0yzVZ5rLT7oj-8" edge="1">
          <mxGeometry relative="1" as="geometry">
            <mxPoint x="760" y="140" as="sourcePoint" />
            <mxPoint x="920" y="140" as="targetPoint" />
          </mxGeometry>
        </mxCell>
        <mxCell id="mFdrTynE0yzVZ5rLT7oj-26" value="Deixam" style="shape=rhombus;perimeter=rhombusPerimeter;whiteSpace=wrap;html=1;align=center;fillColor=#fff2cc;strokeColor=#d6b656;" parent="1" vertex="1">
          <mxGeometry x="500" y="-190" width="120" height="60" as="geometry" />
        </mxCell>
        <mxCell id="mFdrTynE0yzVZ5rLT7oj-28" value="" style="endArrow=none;html=1;rounded=0;entryX=0;entryY=0.5;entryDx=0;entryDy=0;exitX=0;exitY=0.5;exitDx=0;exitDy=0;" parent="1" source="mFdrTynE0yzVZ5rLT7oj-11" target="mFdrTynE0yzVZ5rLT7oj-26" edge="1">
          <mxGeometry relative="1" as="geometry">
            <mxPoint x="120" y="-10" as="sourcePoint" />
            <mxPoint x="740" y="190" as="targetPoint" />
            <Array as="points">
              <mxPoint x="20" y="750" />
              <mxPoint x="20" y="290" />
              <mxPoint x="20" y="-160" />
            </Array>
          </mxGeometry>
        </mxCell>
        <mxCell id="mFdrTynE0yzVZ5rLT7oj-29" value="" style="endArrow=none;html=1;rounded=0;exitX=1;exitY=0.5;exitDx=0;exitDy=0;entryX=0.5;entryY=0;entryDx=0;entryDy=0;" parent="1" source="mFdrTynE0yzVZ5rLT7oj-26" target="mFdrTynE0yzVZ5rLT7oj-8" edge="1">
          <mxGeometry relative="1" as="geometry">
            <mxPoint x="760" y="40" as="sourcePoint" />
            <mxPoint x="920" y="40" as="targetPoint" />
            <Array as="points">
              <mxPoint x="1190" y="-160" />
              <mxPoint x="1400" y="-160" />
            </Array>
          </mxGeometry>
        </mxCell>
        <mxCell id="mFdrTynE0yzVZ5rLT7oj-31" value="" style="endArrow=none;html=1;rounded=0;entryX=0.5;entryY=1;entryDx=0;entryDy=0;exitX=0.5;exitY=0;exitDx=0;exitDy=0;" parent="1" source="mFdrTynE0yzVZ5rLT7oj-19" target="mFdrTynE0yzVZ5rLT7oj-2" edge="1">
          <mxGeometry relative="1" as="geometry">
            <mxPoint x="580" y="390" as="sourcePoint" />
            <mxPoint x="740" y="390" as="targetPoint" />
          </mxGeometry>
        </mxCell>
        <mxCell id="mFdrTynE0yzVZ5rLT7oj-32" value="" style="endArrow=none;html=1;rounded=0;entryX=0.5;entryY=1;entryDx=0;entryDy=0;exitX=0.5;exitY=0;exitDx=0;exitDy=0;" parent="1" source="mFdrTynE0yzVZ5rLT7oj-11" target="mFdrTynE0yzVZ5rLT7oj-19" edge="1">
          <mxGeometry relative="1" as="geometry">
            <mxPoint x="240" y="720" as="sourcePoint" />
            <mxPoint x="420" y="489.5" as="targetPoint" />
          </mxGeometry>
        </mxCell>
        <mxCell id="mFdrTynE0yzVZ5rLT7oj-33" value="Responde" style="shape=rhombus;perimeter=rhombusPerimeter;whiteSpace=wrap;html=1;align=center;fillColor=#fff2cc;strokeColor=#d6b656;" parent="1" vertex="1">
          <mxGeometry x="360" y="720" width="120" height="60" as="geometry" />
        </mxCell>
        <mxCell id="mFdrTynE0yzVZ5rLT7oj-34" style="edgeStyle=orthogonalEdgeStyle;rounded=0;orthogonalLoop=1;jettySize=auto;html=1;exitX=0.5;exitY=1;exitDx=0;exitDy=0;fillColor=#f8cecc;strokeColor=#b85450;" parent="1" source="mFdrTynE0yzVZ5rLT7oj-7" target="mFdrTynE0yzVZ5rLT7oj-7" edge="1">
          <mxGeometry relative="1" as="geometry" />
        </mxCell>
        <mxCell id="mFdrTynE0yzVZ5rLT7oj-35" value="" style="endArrow=none;html=1;rounded=0;exitX=1;exitY=0.5;exitDx=0;exitDy=0;entryX=0;entryY=0.5;entryDx=0;entryDy=0;" parent="1" source="mFdrTynE0yzVZ5rLT7oj-11" target="mFdrTynE0yzVZ5rLT7oj-33" edge="1">
          <mxGeometry relative="1" as="geometry">
            <mxPoint x="590" y="630" as="sourcePoint" />
            <mxPoint x="750" y="630" as="targetPoint" />
          </mxGeometry>
        </mxCell>
        <mxCell id="mFdrTynE0yzVZ5rLT7oj-36" value="" style="endArrow=none;html=1;rounded=0;exitX=1;exitY=0.5;exitDx=0;exitDy=0;entryX=0;entryY=0.5;entryDx=0;entryDy=0;" parent="1" source="mFdrTynE0yzVZ5rLT7oj-33" target="mFdrTynE0yzVZ5rLT7oj-7" edge="1">
          <mxGeometry relative="1" as="geometry">
            <mxPoint x="480" y="810" as="sourcePoint" />
            <mxPoint x="640" y="810" as="targetPoint" />
          </mxGeometry>
        </mxCell>
        <mxCell id="mFdrTynE0yzVZ5rLT7oj-37" value="" style="endArrow=none;html=1;rounded=0;entryX=0;entryY=0;entryDx=0;entryDy=0;exitX=0.5;exitY=1;exitDx=0;exitDy=0;" parent="1" source="mFdrTynE0yzVZ5rLT7oj-18" target="mFdrTynE0yzVZ5rLT7oj-7" edge="1">
          <mxGeometry relative="1" as="geometry">
            <mxPoint x="330" y="520" as="sourcePoint" />
            <mxPoint x="490" y="520" as="targetPoint" />
            <Array as="points">
              <mxPoint x="480" y="520" />
            </Array>
          </mxGeometry>
        </mxCell>
        <mxCell id="mFdrTynE0yzVZ5rLT7oj-38" value="" style="endArrow=none;html=1;rounded=0;exitX=0.573;exitY=1.017;exitDx=0;exitDy=0;entryX=0.5;entryY=0;entryDx=0;entryDy=0;exitPerimeter=0;" parent="1" source="mFdrTynE0yzVZ5rLT7oj-2" target="mFdrTynE0yzVZ5rLT7oj-18" edge="1">
          <mxGeometry relative="1" as="geometry">
            <mxPoint x="320" y="270" as="sourcePoint" />
            <mxPoint x="480" y="270" as="targetPoint" />
          </mxGeometry>
        </mxCell>
        <mxCell id="mFdrTynE0yzVZ5rLT7oj-39" value="Ministra" style="shape=rhombus;perimeter=rhombusPerimeter;whiteSpace=wrap;html=1;align=center;fillColor=#fff2cc;strokeColor=#d6b656;" parent="1" vertex="1">
          <mxGeometry x="640" y="358.57" width="120" height="60" as="geometry" />
        </mxCell>
        <mxCell id="mFdrTynE0yzVZ5rLT7oj-41" value="" style="endArrow=none;html=1;rounded=0;exitX=0.5;exitY=0;exitDx=0;exitDy=0;entryX=0;entryY=0.5;entryDx=0;entryDy=0;" parent="1" source="mFdrTynE0yzVZ5rLT7oj-7" target="mFdrTynE0yzVZ5rLT7oj-39" edge="1">
          <mxGeometry relative="1" as="geometry">
            <mxPoint x="500" y="320" as="sourcePoint" />
            <mxPoint x="660" y="320" as="targetPoint" />
            <Array as="points">
              <mxPoint x="620" y="389" />
            </Array>
          </mxGeometry>
        </mxCell>
        <mxCell id="mFdrTynE0yzVZ5rLT7oj-42" value="" style="endArrow=none;html=1;rounded=0;exitX=1;exitY=0.5;exitDx=0;exitDy=0;entryX=0;entryY=0.5;entryDx=0;entryDy=0;" parent="1" source="mFdrTynE0yzVZ5rLT7oj-39" target="mFdrTynE0yzVZ5rLT7oj-1" edge="1">
          <mxGeometry relative="1" as="geometry">
            <mxPoint x="760" y="350.00000000000017" as="sourcePoint" />
            <mxPoint x="830" y="351.43" as="targetPoint" />
          </mxGeometry>
        </mxCell>
        <mxCell id="mFdrTynE0yzVZ5rLT7oj-43" value="" style="endArrow=none;html=1;rounded=0;exitX=1;exitY=0.5;exitDx=0;exitDy=0;entryX=0;entryY=0.5;entryDx=0;entryDy=0;" parent="1" source="mFdrTynE0yzVZ5rLT7oj-7" target="mFdrTynE0yzVZ5rLT7oj-44" edge="1">
          <mxGeometry relative="1" as="geometry">
            <mxPoint x="670" y="780" as="sourcePoint" />
            <mxPoint x="830" y="780" as="targetPoint" />
          </mxGeometry>
        </mxCell>
        <mxCell id="mFdrTynE0yzVZ5rLT7oj-44" value="Corrigem" style="shape=rhombus;perimeter=rhombusPerimeter;whiteSpace=wrap;html=1;align=center;fillColor=#fff2cc;strokeColor=#d6b656;" parent="1" vertex="1">
          <mxGeometry x="810" y="720" width="120" height="60" as="geometry" />
        </mxCell>
        <mxCell id="mFdrTynE0yzVZ5rLT7oj-45" value="" style="endArrow=none;html=1;rounded=0;exitX=1;exitY=0.5;exitDx=0;exitDy=0;entryX=0;entryY=0.5;entryDx=0;entryDy=0;" parent="1" source="mFdrTynE0yzVZ5rLT7oj-44" target="mFdrTynE0yzVZ5rLT7oj-10" edge="1">
          <mxGeometry relative="1" as="geometry">
            <mxPoint x="940" y="850" as="sourcePoint" />
            <mxPoint x="1100" y="850" as="targetPoint" />
          </mxGeometry>
        </mxCell>
        <mxCell id="mFdrTynE0yzVZ5rLT7oj-46" value="Assistem" style="shape=rhombus;perimeter=rhombusPerimeter;whiteSpace=wrap;html=1;align=center;fillColor=#fff2cc;strokeColor=#d6b656;" parent="1" vertex="1">
          <mxGeometry x="950" y="220" width="120" height="60" as="geometry" />
        </mxCell>
        <mxCell id="mFdrTynE0yzVZ5rLT7oj-47" value="Possuem" style="shape=rhombus;perimeter=rhombusPerimeter;whiteSpace=wrap;html=1;align=center;fillColor=#fff2cc;strokeColor=#d6b656;" parent="1" vertex="1">
          <mxGeometry x="400" y="45" width="120" height="60" as="geometry" />
        </mxCell>
        <mxCell id="mFdrTynE0yzVZ5rLT7oj-48" value="Contém" style="shape=rhombus;perimeter=rhombusPerimeter;whiteSpace=wrap;html=1;align=center;fillColor=#fff2cc;strokeColor=#d6b656;" parent="1" vertex="1">
          <mxGeometry x="730" y="230" width="120" height="60" as="geometry" />
        </mxCell>
        <mxCell id="mFdrTynE0yzVZ5rLT7oj-49" value="" style="endArrow=none;html=1;rounded=0;entryX=0.5;entryY=0;entryDx=0;entryDy=0;exitX=1;exitY=0.5;exitDx=0;exitDy=0;" parent="1" source="mFdrTynE0yzVZ5rLT7oj-48" target="mFdrTynE0yzVZ5rLT7oj-1" edge="1">
          <mxGeometry relative="1" as="geometry">
            <mxPoint x="860" y="260" as="sourcePoint" />
            <mxPoint x="700" y="190" as="targetPoint" />
            <Array as="points">
              <mxPoint x="880" y="260" />
            </Array>
          </mxGeometry>
        </mxCell>
        <mxCell id="mFdrTynE0yzVZ5rLT7oj-50" value="" style="endArrow=none;html=1;rounded=0;entryX=0;entryY=0.5;entryDx=0;entryDy=0;exitX=0.5;exitY=1;exitDx=0;exitDy=0;" parent="1" source="mFdrTynE0yzVZ5rLT7oj-3" target="mFdrTynE0yzVZ5rLT7oj-48" edge="1">
          <mxGeometry relative="1" as="geometry">
            <mxPoint x="460" y="260" as="sourcePoint" />
            <mxPoint x="620" y="260" as="targetPoint" />
            <Array as="points">
              <mxPoint x="660" y="260" />
            </Array>
          </mxGeometry>
        </mxCell>
        <mxCell id="mFdrTynE0yzVZ5rLT7oj-51" value="" style="endArrow=none;html=1;rounded=0;exitX=1;exitY=0.5;exitDx=0;exitDy=0;entryX=0;entryY=0.5;entryDx=0;entryDy=0;" parent="1" source="mFdrTynE0yzVZ5rLT7oj-47" target="mFdrTynE0yzVZ5rLT7oj-3" edge="1">
          <mxGeometry relative="1" as="geometry">
            <mxPoint x="540" y="190" as="sourcePoint" />
            <mxPoint x="700" y="190" as="targetPoint" />
            <Array as="points">
              <mxPoint x="520" y="150" />
            </Array>
          </mxGeometry>
        </mxCell>
        <mxCell id="mFdrTynE0yzVZ5rLT7oj-52" value="" style="endArrow=none;html=1;rounded=0;entryX=0;entryY=0.5;entryDx=0;entryDy=0;exitX=1;exitY=1;exitDx=0;exitDy=0;" parent="1" source="mFdrTynE0yzVZ5rLT7oj-2" target="mFdrTynE0yzVZ5rLT7oj-47" edge="1">
          <mxGeometry relative="1" as="geometry">
            <mxPoint x="340" y="30" as="sourcePoint" />
            <mxPoint x="380" y="120" as="targetPoint" />
            <Array as="points">
              <mxPoint x="400" y="11" />
            </Array>
          </mxGeometry>
        </mxCell>
        <mxCell id="mFdrTynE0yzVZ5rLT7oj-53" value="&lt;span style=&quot;border-bottom: 1px dotted&quot;&gt;Email&lt;/span&gt;" style="ellipse;whiteSpace=wrap;html=1;align=center;fillColor=#f8cecc;strokeColor=#b85450;" parent="1" vertex="1">
          <mxGeometry x="1510" y="31.25" width="100" height="40" as="geometry" />
        </mxCell>
        <mxCell id="mFdrTynE0yzVZ5rLT7oj-54" value="Senha" style="ellipse;whiteSpace=wrap;html=1;align=center;fillColor=#f8cecc;strokeColor=#b85450;" parent="1" vertex="1">
          <mxGeometry x="1510" y="81.25" width="100" height="40" as="geometry" />
        </mxCell>
        <mxCell id="mFdrTynE0yzVZ5rLT7oj-56" value="&lt;span style=&quot;border-bottom: 1px dotted&quot;&gt;Código&lt;/span&gt;" style="ellipse;whiteSpace=wrap;html=1;align=center;fillColor=#f8cecc;strokeColor=#b85450;" parent="1" vertex="1">
          <mxGeometry x="1510" y="-28.75" width="100" height="40" as="geometry" />
        </mxCell>
        <mxCell id="mFdrTynE0yzVZ5rLT7oj-57" value="Nome" style="ellipse;whiteSpace=wrap;html=1;align=center;direction=west;fillColor=#f8cecc;strokeColor=#b85450;" parent="1" vertex="1">
          <mxGeometry x="1510" y="-88.75" width="100" height="40" as="geometry" />
        </mxCell>
        <mxCell id="mFdrTynE0yzVZ5rLT7oj-62" value="Matéria" style="ellipse;whiteSpace=wrap;html=1;align=center;fillColor=#f8cecc;strokeColor=#b85450;" parent="1" vertex="1">
          <mxGeometry x="100" y="-115" width="100" height="40" as="geometry" />
        </mxCell>
        <mxCell id="mFdrTynE0yzVZ5rLT7oj-63" value="" style="endArrow=none;html=1;rounded=0;exitX=0;exitY=1;exitDx=0;exitDy=0;entryX=1;entryY=0;entryDx=0;entryDy=0;" parent="1" source="mFdrTynE0yzVZ5rLT7oj-8" target="mFdrTynE0yzVZ5rLT7oj-46" edge="1">
          <mxGeometry relative="1" as="geometry">
            <mxPoint x="1240" y="376.25" as="sourcePoint" />
            <mxPoint x="1220" y="243.75" as="targetPoint" />
            <Array as="points" />
          </mxGeometry>
        </mxCell>
        <mxCell id="mFdrTynE0yzVZ5rLT7oj-64" value="" style="endArrow=none;html=1;rounded=0;exitX=1;exitY=0.5;exitDx=0;exitDy=0;entryX=0.5;entryY=1;entryDx=0;entryDy=0;" parent="1" source="mFdrTynE0yzVZ5rLT7oj-1" target="mFdrTynE0yzVZ5rLT7oj-46" edge="1">
          <mxGeometry relative="1" as="geometry">
            <mxPoint x="910" y="450" as="sourcePoint" />
            <mxPoint x="1070" y="450" as="targetPoint" />
            <Array as="points">
              <mxPoint x="1000" y="390" />
            </Array>
          </mxGeometry>
        </mxCell>
        <mxCell id="mFdrTynE0yzVZ5rLT7oj-65" value="Tìtulo" style="ellipse;whiteSpace=wrap;html=1;align=center;fillColor=#f8cecc;strokeColor=#b85450;" parent="1" vertex="1">
          <mxGeometry x="760" y="490" width="100" height="40" as="geometry" />
        </mxCell>
        <mxCell id="mFdrTynE0yzVZ5rLT7oj-66" value="Contéudo" style="ellipse;whiteSpace=wrap;html=1;align=center;fillColor=#f8cecc;strokeColor=#b85450;" parent="1" vertex="1">
          <mxGeometry x="760" y="438.57" width="100" height="40" as="geometry" />
        </mxCell>
        <mxCell id="mFdrTynE0yzVZ5rLT7oj-67" value="Nome da Matéria" style="ellipse;whiteSpace=wrap;html=1;align=center;fillColor=#f8cecc;strokeColor=#b85450;" parent="1" vertex="1">
          <mxGeometry x="910" y="490" width="100" height="40" as="geometry" />
        </mxCell>
        <mxCell id="mFdrTynE0yzVZ5rLT7oj-68" value="Duração" style="ellipse;whiteSpace=wrap;html=1;align=center;fillColor=#f8cecc;strokeColor=#b85450;" parent="1" vertex="1">
          <mxGeometry x="910" y="438.57" width="100" height="40" as="geometry" />
        </mxCell>
        <mxCell id="mFdrTynE0yzVZ5rLT7oj-69" value="Desempenho" style="ellipse;whiteSpace=wrap;html=1;align=center;fillColor=#f8cecc;strokeColor=#b85450;" parent="1" vertex="1">
          <mxGeometry x="210" y="-115.00000000000006" width="100" height="40" as="geometry" />
        </mxCell>
        <mxCell id="mFdrTynE0yzVZ5rLT7oj-71" value="Código do Aluno" style="ellipse;whiteSpace=wrap;html=1;align=center;fillColor=#f8cecc;strokeColor=#b85450;" parent="1" vertex="1">
          <mxGeometry x="1420" y="836.25" width="100" height="40" as="geometry" />
        </mxCell>
        <mxCell id="mFdrTynE0yzVZ5rLT7oj-72" value="Nota" style="ellipse;whiteSpace=wrap;html=1;align=center;fillColor=#f8cecc;strokeColor=#b85450;" parent="1" vertex="1">
          <mxGeometry x="1300" y="836.25" width="100" height="40" as="geometry" />
        </mxCell>
        <mxCell id="mFdrTynE0yzVZ5rLT7oj-73" value="Respostas" style="ellipse;whiteSpace=wrap;html=1;align=center;fillColor=#f8cecc;strokeColor=#b85450;" parent="1" vertex="1">
          <mxGeometry x="330" y="-115" width="100" height="40" as="geometry" />
        </mxCell>
        <mxCell id="mFdrTynE0yzVZ5rLT7oj-74" value="Código do Aluno" style="ellipse;whiteSpace=wrap;html=1;align=center;fillColor=#f8cecc;strokeColor=#b85450;" parent="1" vertex="1">
          <mxGeometry x="80" y="900" width="100" height="40" as="geometry" />
        </mxCell>
        <mxCell id="mFdrTynE0yzVZ5rLT7oj-75" value="Titulo do Vídeo (0, 1)" style="ellipse;whiteSpace=wrap;html=1;align=center;fillColor=#f8cecc;strokeColor=#b85450;" parent="1" vertex="1">
          <mxGeometry x="190" y="900" width="100" height="40" as="geometry" />
        </mxCell>
        <mxCell id="mFdrTynE0yzVZ5rLT7oj-76" value="Código da Atividade (0, 1)" style="ellipse;whiteSpace=wrap;html=1;align=center;fillColor=#f8cecc;strokeColor=#b85450;" parent="1" vertex="1">
          <mxGeometry x="300" y="900" width="100" height="40" as="geometry" />
        </mxCell>
        <mxCell id="mFdrTynE0yzVZ5rLT7oj-77" value="" style="endArrow=none;html=1;rounded=0;exitX=0.5;exitY=0;exitDx=0;exitDy=0;entryX=0;entryY=1;entryDx=0;entryDy=0;fillColor=#f8cecc;strokeColor=#000000;" parent="1" source="mFdrTynE0yzVZ5rLT7oj-74" target="mFdrTynE0yzVZ5rLT7oj-11" edge="1">
          <mxGeometry relative="1" as="geometry">
            <mxPoint x="140" y="930" as="sourcePoint" />
            <mxPoint x="300" y="930" as="targetPoint" />
          </mxGeometry>
        </mxCell>
        <mxCell id="mFdrTynE0yzVZ5rLT7oj-78" value="" style="endArrow=none;html=1;rounded=0;entryX=0.5;entryY=1;entryDx=0;entryDy=0;exitX=0.5;exitY=0;exitDx=0;exitDy=0;fillColor=#f8cecc;strokeColor=#000000;" parent="1" source="mFdrTynE0yzVZ5rLT7oj-75" target="mFdrTynE0yzVZ5rLT7oj-11" edge="1">
          <mxGeometry relative="1" as="geometry">
            <mxPoint x="180" y="860" as="sourcePoint" />
            <mxPoint x="340" y="860" as="targetPoint" />
          </mxGeometry>
        </mxCell>
        <mxCell id="mFdrTynE0yzVZ5rLT7oj-79" value="" style="endArrow=none;html=1;rounded=0;entryX=1;entryY=1;entryDx=0;entryDy=0;exitX=0.5;exitY=0;exitDx=0;exitDy=0;fillColor=#f8cecc;strokeColor=#000000;" parent="1" source="mFdrTynE0yzVZ5rLT7oj-76" target="mFdrTynE0yzVZ5rLT7oj-11" edge="1">
          <mxGeometry relative="1" as="geometry">
            <mxPoint x="180" y="860" as="sourcePoint" />
            <mxPoint x="340" y="860" as="targetPoint" />
          </mxGeometry>
        </mxCell>
        <mxCell id="mFdrTynE0yzVZ5rLT7oj-84" value="" style="endArrow=none;html=1;rounded=0;entryX=1;entryY=0;entryDx=0;entryDy=0;exitX=0.5;exitY=1;exitDx=0;exitDy=0;" parent="1" source="mFdrTynE0yzVZ5rLT7oj-73" target="mFdrTynE0yzVZ5rLT7oj-2" edge="1">
          <mxGeometry relative="1" as="geometry">
            <mxPoint x="170" y="-80" as="sourcePoint" />
            <mxPoint x="330" y="-80" as="targetPoint" />
          </mxGeometry>
        </mxCell>
        <mxCell id="mFdrTynE0yzVZ5rLT7oj-89" value="" style="endArrow=none;html=1;rounded=0;exitX=0.54;exitY=0.981;exitDx=0;exitDy=0;exitPerimeter=0;entryX=0;entryY=0;entryDx=0;entryDy=0;fillColor=#f8cecc;strokeColor=#fcfcfc;" parent="1" source="mFdrTynE0yzVZ5rLT7oj-62" target="mFdrTynE0yzVZ5rLT7oj-2" edge="1">
          <mxGeometry relative="1" as="geometry">
            <mxPoint x="170" y="-80" as="sourcePoint" />
            <mxPoint x="190" y="-30" as="targetPoint" />
          </mxGeometry>
        </mxCell>
        <mxCell id="mFdrTynE0yzVZ5rLT7oj-91" value="" style="endArrow=none;html=1;rounded=0;exitX=0.5;exitY=0;exitDx=0;exitDy=0;entryX=0.25;entryY=1;entryDx=0;entryDy=0;fillColor=#f8cecc;strokeColor=#000000;" parent="1" source="mFdrTynE0yzVZ5rLT7oj-72" target="mFdrTynE0yzVZ5rLT7oj-10" edge="1">
          <mxGeometry relative="1" as="geometry">
            <mxPoint x="1020" y="626.25" as="sourcePoint" />
            <mxPoint x="1180" y="626.25" as="targetPoint" />
          </mxGeometry>
        </mxCell>
        <mxCell id="mFdrTynE0yzVZ5rLT7oj-92" value="" style="endArrow=none;html=1;rounded=0;exitX=0.5;exitY=0;exitDx=0;exitDy=0;entryX=0.75;entryY=1;entryDx=0;entryDy=0;fillColor=#f8cecc;strokeColor=#000000;" parent="1" source="mFdrTynE0yzVZ5rLT7oj-71" target="mFdrTynE0yzVZ5rLT7oj-10" edge="1">
          <mxGeometry relative="1" as="geometry">
            <mxPoint x="1020" y="626.25" as="sourcePoint" />
            <mxPoint x="1180" y="626.25" as="targetPoint" />
          </mxGeometry>
        </mxCell>
        <mxCell id="mFdrTynE0yzVZ5rLT7oj-93" value="&lt;span style=&quot;border-bottom: 1px dotted&quot;&gt;Email&lt;/span&gt;" style="ellipse;whiteSpace=wrap;html=1;align=center;fillColor=#f8cecc;strokeColor=#b85450;" parent="1" vertex="1">
          <mxGeometry x="470" y="840" width="100" height="40" as="geometry" />
        </mxCell>
        <mxCell id="mFdrTynE0yzVZ5rLT7oj-94" value="Senha" style="ellipse;whiteSpace=wrap;html=1;align=center;fillColor=#f8cecc;strokeColor=#b85450;" parent="1" vertex="1">
          <mxGeometry x="670" y="840" width="100" height="40" as="geometry" />
        </mxCell>
        <mxCell id="mFdrTynE0yzVZ5rLT7oj-95" value="&lt;span style=&quot;border-bottom: 1px dotted&quot;&gt;Código&lt;/span&gt;" style="ellipse;whiteSpace=wrap;html=1;align=center;fillColor=#f8cecc;strokeColor=#b85450;" parent="1" vertex="1">
          <mxGeometry x="370" y="840" width="100" height="40" as="geometry" />
        </mxCell>
        <mxCell id="mFdrTynE0yzVZ5rLT7oj-96" value="Nome" style="ellipse;whiteSpace=wrap;html=1;align=center;direction=west;fillColor=#f8cecc;strokeColor=#b85450;" parent="1" vertex="1">
          <mxGeometry x="780" y="840" width="100" height="40" as="geometry" />
        </mxCell>
        <mxCell id="mFdrTynE0yzVZ5rLT7oj-97" value="" style="endArrow=none;html=1;rounded=0;entryX=0;entryY=1;entryDx=0;entryDy=0;exitX=0.5;exitY=0;exitDx=0;exitDy=0;fillColor=#f8cecc;strokeColor=#000000;" parent="1" source="mFdrTynE0yzVZ5rLT7oj-95" target="mFdrTynE0yzVZ5rLT7oj-7" edge="1">
          <mxGeometry relative="1" as="geometry">
            <mxPoint x="400" y="850" as="sourcePoint" />
            <mxPoint x="560" y="850" as="targetPoint" />
          </mxGeometry>
        </mxCell>
        <mxCell id="mFdrTynE0yzVZ5rLT7oj-98" value="" style="endArrow=none;html=1;rounded=0;entryX=0.5;entryY=1;entryDx=0;entryDy=0;exitX=1;exitY=1;exitDx=0;exitDy=0;fillColor=#f8cecc;strokeColor=#000000;" parent="1" source="mFdrTynE0yzVZ5rLT7oj-7" target="mFdrTynE0yzVZ5rLT7oj-96" edge="1">
          <mxGeometry relative="1" as="geometry">
            <mxPoint x="630" y="820" as="sourcePoint" />
            <mxPoint x="790" y="820" as="targetPoint" />
          </mxGeometry>
        </mxCell>
        <mxCell id="mFdrTynE0yzVZ5rLT7oj-99" value="" style="endArrow=none;html=1;rounded=0;exitX=0.5;exitY=0;exitDx=0;exitDy=0;entryX=0.25;entryY=1;entryDx=0;entryDy=0;fillColor=#f8cecc;strokeColor=#000000;" parent="1" source="mFdrTynE0yzVZ5rLT7oj-93" target="mFdrTynE0yzVZ5rLT7oj-7" edge="1">
          <mxGeometry relative="1" as="geometry">
            <mxPoint x="630" y="910" as="sourcePoint" />
            <mxPoint x="790" y="910" as="targetPoint" />
          </mxGeometry>
        </mxCell>
        <mxCell id="mFdrTynE0yzVZ5rLT7oj-100" value="" style="endArrow=none;html=1;rounded=0;exitX=0.75;exitY=1;exitDx=0;exitDy=0;entryX=0.5;entryY=0;entryDx=0;entryDy=0;fillColor=#f8cecc;strokeColor=#000000;" parent="1" source="mFdrTynE0yzVZ5rLT7oj-7" target="mFdrTynE0yzVZ5rLT7oj-94" edge="1">
          <mxGeometry relative="1" as="geometry">
            <mxPoint x="570" y="930" as="sourcePoint" />
            <mxPoint x="730" y="930" as="targetPoint" />
          </mxGeometry>
        </mxCell>
        <mxCell id="mFdrTynE0yzVZ5rLT7oj-101" value="" style="endArrow=none;html=1;rounded=0;exitX=1;exitY=1;exitDx=0;exitDy=0;entryX=0;entryY=0.5;entryDx=0;entryDy=0;" parent="1" target="mFdrTynE0yzVZ5rLT7oj-54" edge="1">
          <mxGeometry relative="1" as="geometry">
            <mxPoint x="1450" y="36.25" as="sourcePoint" />
            <mxPoint x="1540" y="101.25" as="targetPoint" />
          </mxGeometry>
        </mxCell>
        <mxCell id="mFdrTynE0yzVZ5rLT7oj-102" value="" style="endArrow=none;html=1;rounded=0;exitX=1;exitY=0;exitDx=0;exitDy=0;entryX=1;entryY=0.5;entryDx=0;entryDy=0;" parent="1" source="mFdrTynE0yzVZ5rLT7oj-8" target="mFdrTynE0yzVZ5rLT7oj-57" edge="1">
          <mxGeometry relative="1" as="geometry">
            <mxPoint x="1500" y="-1.25" as="sourcePoint" />
            <mxPoint x="1590" y="-66.25" as="targetPoint" />
          </mxGeometry>
        </mxCell>
        <mxCell id="mFdrTynE0yzVZ5rLT7oj-103" value="" style="endArrow=none;html=1;rounded=0;exitX=1;exitY=0.5;exitDx=0;exitDy=0;entryX=0;entryY=0.5;entryDx=0;entryDy=0;" parent="1" source="mFdrTynE0yzVZ5rLT7oj-8" target="mFdrTynE0yzVZ5rLT7oj-56" edge="1">
          <mxGeometry relative="1" as="geometry">
            <mxPoint x="1500" y="8.75" as="sourcePoint" />
            <mxPoint x="1590" y="-6.25" as="targetPoint" />
          </mxGeometry>
        </mxCell>
        <mxCell id="mFdrTynE0yzVZ5rLT7oj-104" value="" style="endArrow=none;html=1;rounded=0;exitX=1;exitY=0.75;exitDx=0;exitDy=0;entryX=0;entryY=0.5;entryDx=0;entryDy=0;" parent="1" source="mFdrTynE0yzVZ5rLT7oj-8" target="mFdrTynE0yzVZ5rLT7oj-53" edge="1">
          <mxGeometry relative="1" as="geometry">
            <mxPoint x="1500" y="28.75" as="sourcePoint" />
            <mxPoint x="1590" y="53.75" as="targetPoint" />
          </mxGeometry>
        </mxCell>
        <mxCell id="mFdrTynE0yzVZ5rLT7oj-105" value="(0,N)" style="text;html=1;align=center;verticalAlign=middle;resizable=0;points=[];autosize=1;strokeColor=none;fillColor=none;" parent="1" vertex="1">
          <mxGeometry x="1310" y="753.75" width="50" height="30" as="geometry" />
        </mxCell>
        <mxCell id="mFdrTynE0yzVZ5rLT7oj-106" value="(1,N)" style="text;html=1;align=center;verticalAlign=middle;resizable=0;points=[];autosize=1;strokeColor=none;fillColor=none;rotation=0;" parent="1" vertex="1">
          <mxGeometry x="660" y="722.5" width="50" height="30" as="geometry" />
        </mxCell>
        <mxCell id="mFdrTynE0yzVZ5rLT7oj-107" value="(1)" style="text;html=1;align=center;verticalAlign=middle;resizable=0;points=[];autosize=1;strokeColor=none;fillColor=none;" parent="1" vertex="1">
          <mxGeometry x="1390" y="31.25" width="40" height="30" as="geometry" />
        </mxCell>
        <mxCell id="mFdrTynE0yzVZ5rLT7oj-108" value="(0,N)" style="text;html=1;align=center;verticalAlign=middle;resizable=0;points=[];autosize=1;strokeColor=none;fillColor=none;" parent="1" vertex="1">
          <mxGeometry x="1410" y="726.25" width="50" height="30" as="geometry" />
        </mxCell>
        <mxCell id="mFdrTynE0yzVZ5rLT7oj-110" value="(0,N)" style="text;html=1;align=center;verticalAlign=middle;resizable=0;points=[];autosize=1;strokeColor=none;fillColor=none;" parent="1" vertex="1">
          <mxGeometry x="1300" y="31.25" width="50" height="30" as="geometry" />
        </mxCell>
        <mxCell id="mFdrTynE0yzVZ5rLT7oj-112" value="(0,N)" style="text;html=1;align=center;verticalAlign=middle;resizable=0;points=[];autosize=1;strokeColor=none;fillColor=none;" parent="1" vertex="1">
          <mxGeometry x="920" y="365" width="50" height="30" as="geometry" />
        </mxCell>
        <mxCell id="mFdrTynE0yzVZ5rLT7oj-113" value="(1,N)" style="text;html=1;align=center;verticalAlign=middle;resizable=0;points=[];autosize=1;strokeColor=none;fillColor=none;" parent="1" vertex="1">
          <mxGeometry x="840" y="340" width="50" height="30" as="geometry" />
        </mxCell>
        <mxCell id="mFdrTynE0yzVZ5rLT7oj-114" value="(1)" style="text;html=1;align=center;verticalAlign=middle;resizable=0;points=[];autosize=1;strokeColor=none;fillColor=none;" parent="1" vertex="1">
          <mxGeometry x="650" y="168" width="40" height="30" as="geometry" />
        </mxCell>
        <mxCell id="mFdrTynE0yzVZ5rLT7oj-117" value="(1,N)" style="text;html=1;align=center;verticalAlign=middle;resizable=0;points=[];autosize=1;strokeColor=none;fillColor=none;" parent="1" vertex="1">
          <mxGeometry x="290" y="-15" width="50" height="30" as="geometry" />
        </mxCell>
        <mxCell id="mFdrTynE0yzVZ5rLT7oj-118" value="(1)" style="text;html=1;align=center;verticalAlign=middle;resizable=0;points=[];autosize=1;strokeColor=none;fillColor=none;" parent="1" vertex="1">
          <mxGeometry x="575" y="120" width="40" height="30" as="geometry" />
        </mxCell>
        <mxCell id="mFdrTynE0yzVZ5rLT7oj-119" value="(0,N)" style="text;html=1;align=center;verticalAlign=middle;resizable=0;points=[];autosize=1;strokeColor=none;fillColor=none;" parent="1" vertex="1">
          <mxGeometry x="290" y="-40" width="50" height="30" as="geometry" />
        </mxCell>
        <mxCell id="mFdrTynE0yzVZ5rLT7oj-120" value="(0,1)" style="text;html=1;align=center;verticalAlign=middle;resizable=0;points=[];autosize=1;strokeColor=none;fillColor=none;" parent="1" vertex="1">
          <mxGeometry x="1310" y="-8.75" width="50" height="30" as="geometry" />
        </mxCell>
        <mxCell id="mFdrTynE0yzVZ5rLT7oj-121" value="(0,N)" style="text;html=1;align=center;verticalAlign=middle;resizable=0;points=[];autosize=1;strokeColor=none;fillColor=none;" parent="1" vertex="1">
          <mxGeometry x="150" y="722.5" width="50" height="30" as="geometry" />
        </mxCell>
        <mxCell id="mFdrTynE0yzVZ5rLT7oj-122" value="(1,N)" style="text;html=1;align=center;verticalAlign=middle;resizable=0;points=[];autosize=1;strokeColor=none;fillColor=none;" parent="1" vertex="1">
          <mxGeometry x="1360" y="-28.75" width="50" height="30" as="geometry" />
        </mxCell>
        <mxCell id="mFdrTynE0yzVZ5rLT7oj-123" value="(0,N)" style="text;html=1;align=center;verticalAlign=middle;resizable=0;points=[];autosize=1;strokeColor=none;fillColor=none;" parent="1" vertex="1">
          <mxGeometry x="280" y="742.5" width="50" height="30" as="geometry" />
        </mxCell>
        <mxCell id="mFdrTynE0yzVZ5rLT7oj-124" value="(0,1)" style="text;html=1;align=center;verticalAlign=middle;resizable=0;points=[];autosize=1;strokeColor=none;fillColor=none;" parent="1" vertex="1">
          <mxGeometry x="520" y="742.5" width="50" height="30" as="geometry" />
        </mxCell>
        <mxCell id="mFdrTynE0yzVZ5rLT7oj-127" value="" style="endArrow=none;html=1;rounded=0;entryX=0.5;entryY=1;entryDx=0;entryDy=0;exitX=0.5;exitY=0;exitDx=0;exitDy=0;" parent="1" source="mFdrTynE0yzVZ5rLT7oj-2" target="mFdrTynE0yzVZ5rLT7oj-69" edge="1">
          <mxGeometry relative="1" as="geometry">
            <mxPoint x="520" y="-70" as="sourcePoint" />
            <mxPoint x="680" y="-70" as="targetPoint" />
          </mxGeometry>
        </mxCell>
        <mxCell id="mFdrTynE0yzVZ5rLT7oj-129" value="" style="endArrow=none;html=1;rounded=0;entryX=0.5;entryY=1;entryDx=0;entryDy=0;" parent="1" target="mFdrTynE0yzVZ5rLT7oj-1" edge="1">
          <mxGeometry relative="1" as="geometry">
            <mxPoint x="880" y="510" as="sourcePoint" />
            <mxPoint x="880" y="430" as="targetPoint" />
          </mxGeometry>
        </mxCell>
        <mxCell id="mFdrTynE0yzVZ5rLT7oj-130" value="" style="endArrow=none;html=1;rounded=0;exitX=1;exitY=0.5;exitDx=0;exitDy=0;entryX=0;entryY=0.5;entryDx=0;entryDy=0;" parent="1" source="mFdrTynE0yzVZ5rLT7oj-65" target="mFdrTynE0yzVZ5rLT7oj-67" edge="1">
          <mxGeometry relative="1" as="geometry">
            <mxPoint x="500" y="520" as="sourcePoint" />
            <mxPoint x="660" y="520" as="targetPoint" />
          </mxGeometry>
        </mxCell>
        <mxCell id="mFdrTynE0yzVZ5rLT7oj-133" value="" style="endArrow=none;html=1;rounded=0;exitX=1;exitY=0.5;exitDx=0;exitDy=0;entryX=0;entryY=0.5;entryDx=0;entryDy=0;" parent="1" source="mFdrTynE0yzVZ5rLT7oj-66" target="mFdrTynE0yzVZ5rLT7oj-68" edge="1">
          <mxGeometry relative="1" as="geometry">
            <mxPoint x="500" y="520" as="sourcePoint" />
            <mxPoint x="660" y="520" as="targetPoint" />
          </mxGeometry>
        </mxCell>
        <mxCell id="mFdrTynE0yzVZ5rLT7oj-136" value="Professor Responsável" style="ellipse;whiteSpace=wrap;html=1;align=center;fillColor=#f8cecc;strokeColor=#b85450;" parent="1" vertex="1">
          <mxGeometry x="780" y="158" width="100" height="40" as="geometry" />
        </mxCell>
        <mxCell id="mFdrTynE0yzVZ5rLT7oj-137" value="Nome da Matéria" style="ellipse;whiteSpace=wrap;html=1;align=center;fillColor=#f8cecc;strokeColor=#b85450;" parent="1" vertex="1">
          <mxGeometry x="780" y="97.5" width="100" height="40" as="geometry" />
        </mxCell>
        <mxCell id="mFdrTynE0yzVZ5rLT7oj-140" value="" style="endArrow=none;html=1;rounded=0;exitX=1;exitY=1;exitDx=0;exitDy=0;entryX=0;entryY=0.5;entryDx=0;entryDy=0;" parent="1" source="mFdrTynE0yzVZ5rLT7oj-3" target="mFdrTynE0yzVZ5rLT7oj-136" edge="1">
          <mxGeometry relative="1" as="geometry">
            <mxPoint x="790" y="130" as="sourcePoint" />
            <mxPoint x="950" y="130" as="targetPoint" />
          </mxGeometry>
        </mxCell>
        <mxCell id="mFdrTynE0yzVZ5rLT7oj-141" value="" style="endArrow=none;html=1;rounded=0;exitX=1;exitY=0;exitDx=0;exitDy=0;entryX=0;entryY=0.5;entryDx=0;entryDy=0;" parent="1" source="mFdrTynE0yzVZ5rLT7oj-3" target="mFdrTynE0yzVZ5rLT7oj-137" edge="1">
          <mxGeometry relative="1" as="geometry">
            <mxPoint x="790" y="130" as="sourcePoint" />
            <mxPoint x="950" y="130" as="targetPoint" />
          </mxGeometry>
        </mxCell>
        <mxCell id="OMStZUED2lXLH2TloZxk-1" value="ID Aluno (0, 1)" style="ellipse;whiteSpace=wrap;html=1;align=center;fillColor=#f8cecc;strokeColor=#b85450;" parent="1" vertex="1">
          <mxGeometry x="40" y="-67.5" width="100" height="40" as="geometry" />
        </mxCell>
        <mxCell id="OMStZUED2lXLH2TloZxk-3" value="&lt;span style=&quot;border-bottom: 1px dotted&quot;&gt;Email&lt;/span&gt;" style="ellipse;whiteSpace=wrap;html=1;align=center;fillColor=#f8cecc;strokeColor=#b85450;" parent="1" vertex="1">
          <mxGeometry x="790" y="575" width="100" height="40" as="geometry" />
        </mxCell>
        <mxCell id="OMStZUED2lXLH2TloZxk-4" value="Senha" style="ellipse;whiteSpace=wrap;html=1;align=center;fillColor=#f8cecc;strokeColor=#b85450;" parent="1" vertex="1">
          <mxGeometry x="770" y="663.75" width="100" height="40" as="geometry" />
        </mxCell>
        <mxCell id="OMStZUED2lXLH2TloZxk-5" value="Nome" style="ellipse;whiteSpace=wrap;html=1;align=center;direction=west;fillColor=#f8cecc;strokeColor=#b85450;" parent="1" vertex="1">
          <mxGeometry x="780" y="620" width="100" height="40" as="geometry" />
        </mxCell>
        <mxCell id="OMStZUED2lXLH2TloZxk-6" value="" style="endArrow=none;html=1;rounded=0;entryX=0;entryY=0.5;entryDx=0;entryDy=0;exitX=1;exitY=0;exitDx=0;exitDy=0;" parent="1" source="mFdrTynE0yzVZ5rLT7oj-5" target="OMStZUED2lXLH2TloZxk-3" edge="1">
          <mxGeometry relative="1" as="geometry">
            <mxPoint x="650" y="580" as="sourcePoint" />
            <mxPoint x="810" y="580" as="targetPoint" />
          </mxGeometry>
        </mxCell>
        <mxCell id="OMStZUED2lXLH2TloZxk-7" value="" style="endArrow=none;html=1;rounded=0;entryX=1;entryY=0.5;entryDx=0;entryDy=0;exitX=1;exitY=0.5;exitDx=0;exitDy=0;" parent="1" source="mFdrTynE0yzVZ5rLT7oj-5" target="OMStZUED2lXLH2TloZxk-5" edge="1">
          <mxGeometry relative="1" as="geometry">
            <mxPoint x="650" y="580" as="sourcePoint" />
            <mxPoint x="810" y="580" as="targetPoint" />
          </mxGeometry>
        </mxCell>
        <mxCell id="OMStZUED2lXLH2TloZxk-8" value="" style="endArrow=none;html=1;rounded=0;entryX=0;entryY=0.5;entryDx=0;entryDy=0;exitX=1;exitY=1;exitDx=0;exitDy=0;" parent="1" source="mFdrTynE0yzVZ5rLT7oj-5" target="OMStZUED2lXLH2TloZxk-4" edge="1">
          <mxGeometry relative="1" as="geometry">
            <mxPoint x="650" y="580" as="sourcePoint" />
            <mxPoint x="810" y="580" as="targetPoint" />
          </mxGeometry>
        </mxCell>
        <mxCell id="OMStZUED2lXLH2TloZxk-10" value="Código" style="ellipse;whiteSpace=wrap;html=1;align=center;fontStyle=4;fillColor=#f8cecc;strokeColor=#b85450;" parent="1" vertex="1">
          <mxGeometry x="40" y="-15" width="100" height="40" as="geometry" />
        </mxCell>
        <mxCell id="OMStZUED2lXLH2TloZxk-12" value="Matéria" style="ellipse;whiteSpace=wrap;html=1;align=center;fillColor=#f8cecc;strokeColor=#b85450;" parent="1" vertex="1">
          <mxGeometry x="1520" y="783.75" width="100" height="40" as="geometry" />
        </mxCell>
        <mxCell id="OMStZUED2lXLH2TloZxk-13" value="" style="endArrow=none;html=1;rounded=0;exitX=1;exitY=0.5;exitDx=0;exitDy=0;" parent="1" source="mFdrTynE0yzVZ5rLT7oj-10" target="OMStZUED2lXLH2TloZxk-12" edge="1">
          <mxGeometry relative="1" as="geometry">
            <mxPoint x="1430" y="783.75" as="sourcePoint" />
            <mxPoint x="1590" y="783.75" as="targetPoint" />
          </mxGeometry>
        </mxCell>
        <mxCell id="OMStZUED2lXLH2TloZxk-17" value="Especialidade" style="ellipse;whiteSpace=wrap;html=1;align=center;fillColor=#f8cecc;strokeColor=#b85450;" parent="1" vertex="1">
          <mxGeometry x="570" y="840" width="100" height="40" as="geometry" />
        </mxCell>
        <mxCell id="OMStZUED2lXLH2TloZxk-18" value="" style="endArrow=none;html=1;rounded=0;" parent="1" edge="1">
          <mxGeometry relative="1" as="geometry">
            <mxPoint x="480" y="750" as="sourcePoint" />
            <mxPoint x="570" y="750" as="targetPoint" />
          </mxGeometry>
        </mxCell>
        <mxCell id="OMStZUED2lXLH2TloZxk-20" value="" style="endArrow=none;html=1;rounded=0;fillColor=#f8cecc;strokeColor=#000000;" parent="1" source="mFdrTynE0yzVZ5rLT7oj-7" target="OMStZUED2lXLH2TloZxk-17" edge="1">
          <mxGeometry relative="1" as="geometry">
            <mxPoint x="500" y="940" as="sourcePoint" />
            <mxPoint x="660" y="940" as="targetPoint" />
          </mxGeometry>
        </mxCell>
        <mxCell id="OMStZUED2lXLH2TloZxk-21" value="" style="endArrow=none;html=1;rounded=0;entryX=0;entryY=0.5;entryDx=0;entryDy=0;" parent="1" target="piNoE8fZv_LmURsJbwbZ-15" edge="1">
          <mxGeometry relative="1" as="geometry">
            <mxPoint x="880" y="510" as="sourcePoint" />
            <mxPoint x="910" y="560" as="targetPoint" />
          </mxGeometry>
        </mxCell>
        <mxCell id="OMStZUED2lXLH2TloZxk-22" value="" style="endArrow=none;html=1;rounded=0;exitX=0;exitY=0.5;exitDx=0;exitDy=0;" parent="1" source="OMStZUED2lXLH2TloZxk-23" edge="1">
          <mxGeometry relative="1" as="geometry">
            <mxPoint x="1490" y="-166.25" as="sourcePoint" />
            <mxPoint x="1410" y="-6.25" as="targetPoint" />
          </mxGeometry>
        </mxCell>
        <mxCell id="OMStZUED2lXLH2TloZxk-23" value="Data de nascimento" style="ellipse;whiteSpace=wrap;html=1;align=center;fillColor=#f8cecc;strokeColor=#b85450;" parent="1" vertex="1">
          <mxGeometry x="1510" y="-146.25" width="100" height="40" as="geometry" />
        </mxCell>
        <mxCell id="jwAzVOilmX0ipvs1t64--1" value="(0,N)" style="text;html=1;align=center;verticalAlign=middle;whiteSpace=wrap;rounded=0;rotation=0;" parent="1" vertex="1">
          <mxGeometry x="240" y="7.5" width="60" height="30" as="geometry" />
        </mxCell>
        <mxCell id="jwAzVOilmX0ipvs1t64--2" value="(1,N)" style="text;html=1;align=center;verticalAlign=middle;resizable=0;points=[];autosize=1;strokeColor=none;fillColor=none;rotation=0;" parent="1" vertex="1">
          <mxGeometry x="560" y="702.5" width="50" height="30" as="geometry" />
        </mxCell>
        <mxCell id="jwAzVOilmX0ipvs1t64--3" value="(0,N)" style="text;html=1;align=center;verticalAlign=middle;resizable=0;points=[];autosize=1;strokeColor=none;fillColor=none;" parent="1" vertex="1">
          <mxGeometry x="195" y="702.5" width="50" height="30" as="geometry" />
        </mxCell>
        <mxCell id="jwAzVOilmX0ipvs1t64--4" value="(0,N)" style="text;html=1;align=center;verticalAlign=middle;resizable=0;points=[];autosize=1;strokeColor=none;fillColor=none;" parent="1" vertex="1">
          <mxGeometry x="200" y="7.5" width="50" height="30" as="geometry" />
        </mxCell>
        <mxCell id="jwAzVOilmX0ipvs1t64--5" value="(1,N)" style="text;html=1;align=center;verticalAlign=middle;resizable=0;points=[];autosize=1;strokeColor=none;fillColor=none;" parent="1" vertex="1">
          <mxGeometry x="780" y="365" width="50" height="30" as="geometry" />
        </mxCell>
        <mxCell id="jwAzVOilmX0ipvs1t64--7" value="(1)" style="text;html=1;align=center;verticalAlign=middle;resizable=0;points=[];autosize=1;strokeColor=none;fillColor=none;" parent="1" vertex="1">
          <mxGeometry x="610" y="702.5" width="40" height="30" as="geometry" />
        </mxCell>
        <mxCell id="piNoE8fZv_LmURsJbwbZ-1" value="Respostas" style="whiteSpace=wrap;html=1;align=center;fillColor=#dae8fc;strokeColor=#6c8ebf;" parent="1" vertex="1">
          <mxGeometry x="80" y="194" width="100" height="40" as="geometry" />
        </mxCell>
        <mxCell id="piNoE8fZv_LmURsJbwbZ-2" value="Checa" style="shape=rhombus;perimeter=rhombusPerimeter;whiteSpace=wrap;html=1;align=center;fillColor=#fff2cc;strokeColor=#d6b656;" parent="1" vertex="1">
          <mxGeometry x="70" y="66" width="120" height="60" as="geometry" />
        </mxCell>
        <mxCell id="piNoE8fZv_LmURsJbwbZ-5" value="" style="endArrow=none;html=1;rounded=0;exitX=0.5;exitY=0;exitDx=0;exitDy=0;entryX=0;entryY=0.75;entryDx=0;entryDy=0;" parent="1" source="piNoE8fZv_LmURsJbwbZ-2" target="mFdrTynE0yzVZ5rLT7oj-2" edge="1">
          <mxGeometry relative="1" as="geometry">
            <mxPoint x="380" y="190" as="sourcePoint" />
            <mxPoint x="540" y="190" as="targetPoint" />
            <Array as="points">
              <mxPoint x="190" y="70" />
            </Array>
          </mxGeometry>
        </mxCell>
        <mxCell id="piNoE8fZv_LmURsJbwbZ-6" value="" style="endArrow=none;html=1;rounded=0;exitX=0.5;exitY=0;exitDx=0;exitDy=0;entryX=0.5;entryY=1;entryDx=0;entryDy=0;" parent="1" source="piNoE8fZv_LmURsJbwbZ-1" target="piNoE8fZv_LmURsJbwbZ-2" edge="1">
          <mxGeometry relative="1" as="geometry">
            <mxPoint x="80" y="250" as="sourcePoint" />
            <mxPoint x="80" y="182" as="targetPoint" />
          </mxGeometry>
        </mxCell>
        <mxCell id="piNoE8fZv_LmURsJbwbZ-7" value="Gabarito" style="ellipse;whiteSpace=wrap;html=1;align=center;fillColor=#f8cecc;strokeColor=#b85450;" parent="1" vertex="1">
          <mxGeometry x="80" y="335" width="100" height="40" as="geometry" />
        </mxCell>
        <mxCell id="piNoE8fZv_LmURsJbwbZ-8" value="Código Atividade" style="ellipse;whiteSpace=wrap;html=1;align=center;fillColor=#f8cecc;strokeColor=#b85450;" parent="1" vertex="1">
          <mxGeometry x="20" y="280" width="100" height="40" as="geometry" />
        </mxCell>
        <mxCell id="piNoE8fZv_LmURsJbwbZ-9" value="Código" style="ellipse;whiteSpace=wrap;html=1;align=center;fontStyle=4;fillColor=#f8cecc;strokeColor=#b85450;" parent="1" vertex="1">
          <mxGeometry x="140" y="280" width="100" height="40" as="geometry" />
        </mxCell>
        <mxCell id="piNoE8fZv_LmURsJbwbZ-10" value="" style="endArrow=none;html=1;rounded=0;exitX=0.5;exitY=0;exitDx=0;exitDy=0;entryX=0;entryY=1;entryDx=0;entryDy=0;fillColor=#f8cecc;strokeColor=#000000;" parent="1" source="piNoE8fZv_LmURsJbwbZ-8" target="piNoE8fZv_LmURsJbwbZ-1" edge="1">
          <mxGeometry relative="1" as="geometry">
            <mxPoint x="380" y="270" as="sourcePoint" />
            <mxPoint x="540" y="270" as="targetPoint" />
          </mxGeometry>
        </mxCell>
        <mxCell id="piNoE8fZv_LmURsJbwbZ-11" value="" style="endArrow=none;html=1;rounded=0;exitX=0.5;exitY=0;exitDx=0;exitDy=0;entryX=1;entryY=1;entryDx=0;entryDy=0;fillColor=#f8cecc;strokeColor=#000000;" parent="1" source="piNoE8fZv_LmURsJbwbZ-9" target="piNoE8fZv_LmURsJbwbZ-1" edge="1">
          <mxGeometry relative="1" as="geometry">
            <mxPoint x="380" y="270" as="sourcePoint" />
            <mxPoint x="540" y="270" as="targetPoint" />
          </mxGeometry>
        </mxCell>
        <mxCell id="piNoE8fZv_LmURsJbwbZ-12" value="" style="endArrow=none;html=1;rounded=0;exitX=0.5;exitY=0;exitDx=0;exitDy=0;entryX=0.5;entryY=1;entryDx=0;entryDy=0;fillColor=#f8cecc;strokeColor=#000000;" parent="1" source="piNoE8fZv_LmURsJbwbZ-7" target="piNoE8fZv_LmURsJbwbZ-1" edge="1">
          <mxGeometry relative="1" as="geometry">
            <mxPoint x="75" y="438.57" as="sourcePoint" />
            <mxPoint x="235" y="438.57" as="targetPoint" />
          </mxGeometry>
        </mxCell>
        <mxCell id="piNoE8fZv_LmURsJbwbZ-13" value="1" style="text;html=1;align=center;verticalAlign=middle;resizable=0;points=[];autosize=1;strokeColor=none;fillColor=none;" parent="1" vertex="1">
          <mxGeometry x="130" y="164" width="30" height="30" as="geometry" />
        </mxCell>
        <mxCell id="piNoE8fZv_LmURsJbwbZ-14" value="1" style="text;html=1;align=center;verticalAlign=middle;resizable=0;points=[];autosize=1;strokeColor=none;fillColor=none;" parent="1" vertex="1">
          <mxGeometry x="165" y="-2" width="30" height="30" as="geometry" />
        </mxCell>
        <mxCell id="piNoE8fZv_LmURsJbwbZ-15" value="Url" style="ellipse;whiteSpace=wrap;html=1;align=center;fontStyle=4;fillColor=#f8cecc;strokeColor=#b85450;" parent="1" vertex="1">
          <mxGeometry x="880" y="535" width="100" height="40" as="geometry" />
        </mxCell>
        <mxCell id="piNoE8fZv_LmURsJbwbZ-16" value="" style="endArrow=none;html=1;rounded=0;entryX=0;entryY=1;entryDx=0;entryDy=0;exitX=1;exitY=0;exitDx=0;exitDy=0;" parent="1" source="mFdrTynE0yzVZ5rLT7oj-11" target="piNoE8fZv_LmURsJbwbZ-17" edge="1">
          <mxGeometry relative="1" as="geometry">
            <mxPoint x="35" y="640" as="sourcePoint" />
            <mxPoint x="195" y="640" as="targetPoint" />
          </mxGeometry>
        </mxCell>
        <mxCell id="piNoE8fZv_LmURsJbwbZ-17" value="Apresenta" style="shape=rhombus;perimeter=rhombusPerimeter;whiteSpace=wrap;html=1;align=center;fillColor=#fff2cc;strokeColor=#d6b656;" parent="1" vertex="1">
          <mxGeometry x="380" y="560" width="120" height="60" as="geometry" />
        </mxCell>
        <mxCell id="piNoE8fZv_LmURsJbwbZ-18" value="" style="endArrow=none;html=1;rounded=0;entryX=0.998;entryY=0.289;entryDx=0;entryDy=0;exitX=1;exitY=0;exitDx=0;exitDy=0;entryPerimeter=0;" parent="1" source="piNoE8fZv_LmURsJbwbZ-17" target="piNoE8fZv_LmURsJbwbZ-21" edge="1">
          <mxGeometry relative="1" as="geometry">
            <mxPoint x="470" y="590" as="sourcePoint" />
            <mxPoint x="630" y="590" as="targetPoint" />
          </mxGeometry>
        </mxCell>
        <mxCell id="piNoE8fZv_LmURsJbwbZ-19" value="0, N" style="text;html=1;align=center;verticalAlign=middle;resizable=0;points=[];autosize=1;strokeColor=none;fillColor=none;" parent="1" vertex="1">
          <mxGeometry x="255" y="698" width="50" height="30" as="geometry" />
        </mxCell>
        <mxCell id="piNoE8fZv_LmURsJbwbZ-21" value="0, N" style="text;html=1;align=center;verticalAlign=middle;resizable=0;points=[];autosize=1;strokeColor=none;fillColor=none;" parent="1" vertex="1">
          <mxGeometry x="780" y="388.57" width="50" height="30" as="geometry" />
        </mxCell>
        <mxCell id="piNoE8fZv_LmURsJbwbZ-24" value="Gerencia" style="shape=rhombus;perimeter=rhombusPerimeter;whiteSpace=wrap;html=1;align=center;fillColor=#fff2cc;strokeColor=#d6b656;" parent="1" vertex="1">
          <mxGeometry x="650" y="500" width="120" height="60" as="geometry" />
        </mxCell>
        <mxCell id="piNoE8fZv_LmURsJbwbZ-25" value="" style="endArrow=none;html=1;rounded=0;exitX=0.5;exitY=0;exitDx=0;exitDy=0;entryX=0.5;entryY=1;entryDx=0;entryDy=0;" parent="1" source="mFdrTynE0yzVZ5rLT7oj-5" target="piNoE8fZv_LmURsJbwbZ-24" edge="1">
          <mxGeometry relative="1" as="geometry">
            <mxPoint x="700" y="690" as="sourcePoint" />
            <mxPoint x="860" y="690" as="targetPoint" />
          </mxGeometry>
        </mxCell>
        <mxCell id="piNoE8fZv_LmURsJbwbZ-26" value="" style="endArrow=none;html=1;rounded=0;exitX=0.5;exitY=0;exitDx=0;exitDy=0;entryX=0;entryY=1;entryDx=0;entryDy=0;" parent="1" source="piNoE8fZv_LmURsJbwbZ-24" target="mFdrTynE0yzVZ5rLT7oj-1" edge="1">
          <mxGeometry relative="1" as="geometry">
            <mxPoint x="680" y="580" as="sourcePoint" />
            <mxPoint x="880" y="440" as="targetPoint" />
            <Array as="points">
              <mxPoint x="760" y="440" />
            </Array>
          </mxGeometry>
        </mxCell>
        <mxCell id="piNoE8fZv_LmURsJbwbZ-27" value="1, N" style="text;html=1;align=center;verticalAlign=middle;resizable=0;points=[];autosize=1;strokeColor=none;fillColor=none;" parent="1" vertex="1">
          <mxGeometry x="810" y="408.57" width="50" height="30" as="geometry" />
        </mxCell>
        <mxCell id="piNoE8fZv_LmURsJbwbZ-28" value="1" style="text;html=1;align=center;verticalAlign=middle;resizable=0;points=[];autosize=1;strokeColor=none;fillColor=none;" parent="1" vertex="1">
          <mxGeometry x="705" y="575" width="30" height="30" as="geometry" />
        </mxCell>
        <mxCell id="piNoE8fZv_LmURsJbwbZ-29" value="Simulados" style="whiteSpace=wrap;html=1;align=center;fillColor=#dae8fc;strokeColor=#6c8ebf;" parent="1" vertex="1">
          <mxGeometry x="1275" y="398.57" width="100" height="40" as="geometry" />
        </mxCell>
        <mxCell id="piNoE8fZv_LmURsJbwbZ-30" value="Inspeciona" style="shape=rhombus;perimeter=rhombusPerimeter;whiteSpace=wrap;html=1;align=center;fillColor=#fff2cc;strokeColor=#d6b656;" parent="1" vertex="1">
          <mxGeometry x="1265" y="662.5" width="120" height="60" as="geometry" />
        </mxCell>
        <mxCell id="piNoE8fZv_LmURsJbwbZ-31" value="Apura" style="shape=rhombus;perimeter=rhombusPerimeter;whiteSpace=wrap;html=1;align=center;fillColor=#fff2cc;strokeColor=#d6b656;" parent="1" vertex="1">
          <mxGeometry x="615" y="280" width="120" height="60" as="geometry" />
        </mxCell>
        <mxCell id="piNoE8fZv_LmURsJbwbZ-33" value="" style="endArrow=none;html=1;rounded=0;entryX=0.25;entryY=0;entryDx=0;entryDy=0;exitX=0.5;exitY=1;exitDx=0;exitDy=0;" parent="1" source="piNoE8fZv_LmURsJbwbZ-30" target="mFdrTynE0yzVZ5rLT7oj-10" edge="1">
          <mxGeometry relative="1" as="geometry">
            <mxPoint x="1170" y="723.75" as="sourcePoint" />
            <mxPoint x="1330" y="723.75" as="targetPoint" />
          </mxGeometry>
        </mxCell>
        <mxCell id="piNoE8fZv_LmURsJbwbZ-37" value="Efetuam" style="shape=rhombus;perimeter=rhombusPerimeter;whiteSpace=wrap;html=1;align=center;fillColor=#fff2cc;strokeColor=#d6b656;" parent="1" vertex="1">
          <mxGeometry x="1265" y="273.75" width="120" height="60" as="geometry" />
        </mxCell>
        <mxCell id="piNoE8fZv_LmURsJbwbZ-38" value="" style="endArrow=none;html=1;rounded=0;exitX=0.5;exitY=0;exitDx=0;exitDy=0;entryX=0.5;entryY=1;entryDx=0;entryDy=0;" parent="1" source="piNoE8fZv_LmURsJbwbZ-29" target="piNoE8fZv_LmURsJbwbZ-37" edge="1">
          <mxGeometry relative="1" as="geometry">
            <mxPoint x="1320" y="513.75" as="sourcePoint" />
            <mxPoint x="1480" y="513.75" as="targetPoint" />
          </mxGeometry>
        </mxCell>
        <mxCell id="piNoE8fZv_LmURsJbwbZ-39" value="" style="endArrow=none;html=1;rounded=0;exitX=0.5;exitY=0;exitDx=0;exitDy=0;entryX=0.25;entryY=1;entryDx=0;entryDy=0;" parent="1" source="piNoE8fZv_LmURsJbwbZ-37" target="mFdrTynE0yzVZ5rLT7oj-8" edge="1">
          <mxGeometry relative="1" as="geometry">
            <mxPoint x="1360" y="213.75" as="sourcePoint" />
            <mxPoint x="1520" y="213.75" as="targetPoint" />
          </mxGeometry>
        </mxCell>
        <mxCell id="piNoE8fZv_LmURsJbwbZ-40" value="0, 1" style="text;html=1;align=center;verticalAlign=middle;resizable=0;points=[];autosize=1;strokeColor=none;fillColor=none;" parent="1" vertex="1">
          <mxGeometry x="1340" y="36.25" width="40" height="30" as="geometry" />
        </mxCell>
        <mxCell id="piNoE8fZv_LmURsJbwbZ-41" value="0, N" style="text;html=1;align=center;verticalAlign=middle;resizable=0;points=[];autosize=1;strokeColor=none;fillColor=none;" parent="1" vertex="1">
          <mxGeometry x="1285" y="375" width="50" height="30" as="geometry" />
        </mxCell>
        <mxCell id="piNoE8fZv_LmURsJbwbZ-43" value="Código Respostas" style="ellipse;whiteSpace=wrap;html=1;align=center;fillColor=#f8cecc;strokeColor=#b85450;" parent="1" vertex="1">
          <mxGeometry x="1420" y="430" width="80" height="42.75" as="geometry" />
        </mxCell>
        <mxCell id="piNoE8fZv_LmURsJbwbZ-44" value="Questões" style="ellipse;whiteSpace=wrap;html=1;align=center;fillColor=#f8cecc;strokeColor=#b85450;" parent="1" vertex="1">
          <mxGeometry x="1420" y="383.57" width="100" height="40" as="geometry" />
        </mxCell>
        <mxCell id="piNoE8fZv_LmURsJbwbZ-45" value="Código" style="ellipse;whiteSpace=wrap;html=1;align=center;fontStyle=4;fillColor=#f8cecc;strokeColor=#b85450;" parent="1" vertex="1">
          <mxGeometry x="1410" y="483.32" width="100" height="40" as="geometry" />
        </mxCell>
        <mxCell id="piNoE8fZv_LmURsJbwbZ-49" value="" style="endArrow=none;html=1;rounded=0;entryX=0;entryY=0.5;entryDx=0;entryDy=0;exitX=1;exitY=0;exitDx=0;exitDy=0;" parent="1" source="piNoE8fZv_LmURsJbwbZ-29" target="piNoE8fZv_LmURsJbwbZ-44" edge="1">
          <mxGeometry relative="1" as="geometry">
            <mxPoint x="1300" y="443.75" as="sourcePoint" />
            <mxPoint x="1460" y="443.75" as="targetPoint" />
          </mxGeometry>
        </mxCell>
        <mxCell id="piNoE8fZv_LmURsJbwbZ-50" value="" style="endArrow=none;html=1;rounded=0;entryX=0;entryY=0.5;entryDx=0;entryDy=0;exitX=1;exitY=0.5;exitDx=0;exitDy=0;" parent="1" source="piNoE8fZv_LmURsJbwbZ-29" target="piNoE8fZv_LmURsJbwbZ-43" edge="1">
          <mxGeometry relative="1" as="geometry">
            <mxPoint x="1300" y="443.75" as="sourcePoint" />
            <mxPoint x="1460" y="443.75" as="targetPoint" />
          </mxGeometry>
        </mxCell>
        <mxCell id="piNoE8fZv_LmURsJbwbZ-51" value="" style="endArrow=none;html=1;rounded=0;entryX=0;entryY=0.5;entryDx=0;entryDy=0;exitX=1;exitY=1;exitDx=0;exitDy=0;" parent="1" source="piNoE8fZv_LmURsJbwbZ-29" target="piNoE8fZv_LmURsJbwbZ-45" edge="1">
          <mxGeometry relative="1" as="geometry">
            <mxPoint x="1300" y="443.75" as="sourcePoint" />
            <mxPoint x="1460" y="443.75" as="targetPoint" />
          </mxGeometry>
        </mxCell>
        <mxCell id="piNoE8fZv_LmURsJbwbZ-64" value="" style="endArrow=none;html=1;rounded=0;exitX=1;exitY=0.5;exitDx=0;exitDy=0;entryX=0;entryY=0.5;entryDx=0;entryDy=0;" parent="1" source="piNoE8fZv_LmURsJbwbZ-31" target="piNoE8fZv_LmURsJbwbZ-29" edge="1">
          <mxGeometry relative="1" as="geometry">
            <mxPoint x="490" y="310" as="sourcePoint" />
            <mxPoint x="650" y="310" as="targetPoint" />
            <Array as="points">
              <mxPoint x="900" y="340" />
            </Array>
          </mxGeometry>
        </mxCell>
        <mxCell id="piNoE8fZv_LmURsJbwbZ-65" value="" style="endArrow=none;html=1;rounded=0;exitX=1;exitY=0.5;exitDx=0;exitDy=0;entryX=0;entryY=0.5;entryDx=0;entryDy=0;" parent="1" source="piNoE8fZv_LmURsJbwbZ-1" target="piNoE8fZv_LmURsJbwbZ-31" edge="1">
          <mxGeometry relative="1" as="geometry">
            <mxPoint x="540" y="280" as="sourcePoint" />
            <mxPoint x="650" y="310" as="targetPoint" />
          </mxGeometry>
        </mxCell>
        <mxCell id="piNoE8fZv_LmURsJbwbZ-72" value="1" style="text;html=1;align=center;verticalAlign=middle;resizable=0;points=[];autosize=1;strokeColor=none;fillColor=none;" parent="1" vertex="1">
          <mxGeometry x="180" y="190" width="30" height="30" as="geometry" />
        </mxCell>
        <mxCell id="piNoE8fZv_LmURsJbwbZ-73" value="1" style="text;html=1;align=center;verticalAlign=middle;resizable=0;points=[];autosize=1;strokeColor=none;fillColor=none;" parent="1" vertex="1">
          <mxGeometry x="1245" y="395" width="30" height="30" as="geometry" />
        </mxCell>
        <mxCell id="piNoE8fZv_LmURsJbwbZ-74" value="(0,N)" style="text;html=1;align=center;verticalAlign=middle;resizable=0;points=[];autosize=1;strokeColor=none;fillColor=none;" parent="1" vertex="1">
          <mxGeometry x="160" y="-40" width="50" height="30" as="geometry" />
        </mxCell>
        <mxCell id="VBnxZ7sW_NodpRz_AMPE-1" value="" style="endArrow=none;html=1;rounded=0;entryX=0.5;entryY=1;entryDx=0;entryDy=0;exitX=0.94;exitY=0.567;exitDx=0;exitDy=0;exitPerimeter=0;" parent="1" source="piNoE8fZv_LmURsJbwbZ-74" target="mFdrTynE0yzVZ5rLT7oj-62" edge="1">
          <mxGeometry width="50" height="50" relative="1" as="geometry">
            <mxPoint x="430" y="70" as="sourcePoint" />
            <mxPoint x="480" y="20" as="targetPoint" />
          </mxGeometry>
        </mxCell>
        <mxCell id="VBnxZ7sW_NodpRz_AMPE-2" value="" style="endArrow=none;html=1;rounded=0;entryX=1;entryY=0.5;entryDx=0;entryDy=0;" parent="1" source="mFdrTynE0yzVZ5rLT7oj-2" target="OMStZUED2lXLH2TloZxk-1" edge="1">
          <mxGeometry width="50" height="50" relative="1" as="geometry">
            <mxPoint x="217" y="-13" as="sourcePoint" />
            <mxPoint x="160" y="-65" as="targetPoint" />
          </mxGeometry>
        </mxCell>
        <mxCell id="VBnxZ7sW_NodpRz_AMPE-3" value="" style="endArrow=none;html=1;rounded=0;entryX=1;entryY=0.5;entryDx=0;entryDy=0;exitX=0.867;exitY=0.233;exitDx=0;exitDy=0;exitPerimeter=0;" parent="1" source="piNoE8fZv_LmURsJbwbZ-14" target="OMStZUED2lXLH2TloZxk-10" edge="1">
          <mxGeometry width="50" height="50" relative="1" as="geometry">
            <mxPoint x="227" y="-3" as="sourcePoint" />
            <mxPoint x="170" y="-55" as="targetPoint" />
          </mxGeometry>
        </mxCell>
        <mxCell id="VBnxZ7sW_NodpRz_AMPE-6" value="&lt;div&gt;&lt;br&gt;&lt;/div&gt;Aplicação&lt;div&gt;&lt;br&gt;&lt;/div&gt;" style="whiteSpace=wrap;html=1;align=center;fillColor=#dae8fc;strokeColor=#6c8ebf;" parent="1" vertex="1">
          <mxGeometry x="1275" y="575" width="100" height="40" as="geometry" />
        </mxCell>
        <mxCell id="VBnxZ7sW_NodpRz_AMPE-7" value="" style="endArrow=none;html=1;rounded=0;exitX=0.5;exitY=1;exitDx=0;exitDy=0;entryX=0.5;entryY=0;entryDx=0;entryDy=0;" parent="1" source="VBnxZ7sW_NodpRz_AMPE-6" target="piNoE8fZv_LmURsJbwbZ-30" edge="1">
          <mxGeometry relative="1" as="geometry">
            <mxPoint x="940" y="760" as="sourcePoint" />
            <mxPoint x="1360" y="786" as="targetPoint" />
          </mxGeometry>
        </mxCell>
        <mxCell id="VBnxZ7sW_NodpRz_AMPE-8" value="Utilizam" style="shape=rhombus;perimeter=rhombusPerimeter;whiteSpace=wrap;html=1;align=center;fillColor=#fff2cc;strokeColor=#d6b656;" parent="1" vertex="1">
          <mxGeometry x="1265" y="478.57" width="120" height="60" as="geometry" />
        </mxCell>
        <mxCell id="VBnxZ7sW_NodpRz_AMPE-9" value="" style="endArrow=none;html=1;rounded=0;exitX=0.5;exitY=1;exitDx=0;exitDy=0;entryX=0.5;entryY=0;entryDx=0;entryDy=0;" parent="1" source="VBnxZ7sW_NodpRz_AMPE-8" target="VBnxZ7sW_NodpRz_AMPE-6" edge="1">
          <mxGeometry relative="1" as="geometry">
            <mxPoint x="1330" y="625" as="sourcePoint" />
            <mxPoint x="1320" y="590" as="targetPoint" />
          </mxGeometry>
        </mxCell>
        <mxCell id="VBnxZ7sW_NodpRz_AMPE-12" value="" style="endArrow=none;html=1;rounded=0;entryX=0.5;entryY=0;entryDx=0;entryDy=0;" parent="1" source="piNoE8fZv_LmURsJbwbZ-29" target="VBnxZ7sW_NodpRz_AMPE-8" edge="1">
          <mxGeometry relative="1" as="geometry">
            <mxPoint x="1340" y="635" as="sourcePoint" />
            <mxPoint x="1340" y="683" as="targetPoint" />
          </mxGeometry>
        </mxCell>
        <mxCell id="VBnxZ7sW_NodpRz_AMPE-13" value="1,N" style="text;html=1;align=center;verticalAlign=middle;resizable=0;points=[];autosize=1;strokeColor=none;fillColor=none;" parent="1" vertex="1">
          <mxGeometry x="1320" y="436.37" width="40" height="30" as="geometry" />
        </mxCell>
        <mxCell id="VBnxZ7sW_NodpRz_AMPE-14" value="0, N" style="text;html=1;align=center;verticalAlign=middle;resizable=0;points=[];autosize=1;strokeColor=none;fillColor=none;" parent="1" vertex="1">
          <mxGeometry x="1315" y="545" width="50" height="30" as="geometry" />
        </mxCell>
        <mxCell id="VBnxZ7sW_NodpRz_AMPE-15" value="&lt;span style=&quot;color: rgb(0, 0, 0); font-family: Helvetica; font-size: 12px; font-style: normal; font-variant-ligatures: normal; font-variant-caps: normal; font-weight: 400; letter-spacing: normal; orphans: 2; text-align: center; text-indent: 0px; text-transform: none; widows: 2; word-spacing: 0px; -webkit-text-stroke-width: 0px; white-space: nowrap; background-color: rgb(251, 251, 251); text-decoration-thickness: initial; text-decoration-style: initial; text-decoration-color: initial; display: inline !important; float: none;&quot;&gt;1, N&lt;/span&gt;" style="text;whiteSpace=wrap;html=1;" parent="1" vertex="1">
          <mxGeometry x="1330" y="615" width="60" height="40" as="geometry" />
        </mxCell>
        <mxCell id="VBnxZ7sW_NodpRz_AMPE-16" value="&lt;span style=&quot;color: rgb(0, 0, 0); font-family: Helvetica; font-size: 12px; font-style: normal; font-variant-ligatures: normal; font-variant-caps: normal; font-weight: 400; letter-spacing: normal; orphans: 2; text-align: center; text-indent: 0px; text-transform: none; widows: 2; word-spacing: 0px; -webkit-text-stroke-width: 0px; white-space: nowrap; background-color: rgb(251, 251, 251); text-decoration-thickness: initial; text-decoration-style: initial; text-decoration-color: initial; display: inline !important; float: none;&quot;&gt;0, N&lt;/span&gt;" style="text;whiteSpace=wrap;html=1;" parent="1" vertex="1">
          <mxGeometry x="1370" y="737.5" width="60" height="40" as="geometry" />
        </mxCell>
        <mxCell id="VBnxZ7sW_NodpRz_AMPE-17" value="Local" style="ellipse;whiteSpace=wrap;html=1;align=center;fillColor=#f8cecc;strokeColor=#b85450;" parent="1" vertex="1">
          <mxGeometry x="1410" y="590" width="100" height="40" as="geometry" />
        </mxCell>
        <mxCell id="VBnxZ7sW_NodpRz_AMPE-18" value="Data" style="ellipse;whiteSpace=wrap;html=1;align=center;fillColor=#f8cecc;strokeColor=#b85450;" parent="1" vertex="1">
          <mxGeometry x="1410" y="550" width="100" height="40" as="geometry" />
        </mxCell>
        <mxCell id="VBnxZ7sW_NodpRz_AMPE-19" value="Instituições" style="ellipse;whiteSpace=wrap;html=1;align=center;fillColor=#f8cecc;strokeColor=#b85450;" parent="1" vertex="1">
          <mxGeometry x="1410" y="630" width="100" height="40" as="geometry" />
        </mxCell>
        <mxCell id="VBnxZ7sW_NodpRz_AMPE-20" value="" style="endArrow=none;html=1;rounded=0;entryX=0;entryY=0.5;entryDx=0;entryDy=0;exitX=0.75;exitY=0;exitDx=0;exitDy=0;" parent="1" source="VBnxZ7sW_NodpRz_AMPE-15" target="VBnxZ7sW_NodpRz_AMPE-19" edge="1">
          <mxGeometry relative="1" as="geometry">
            <mxPoint x="1335" y="733" as="sourcePoint" />
            <mxPoint x="1385" y="766" as="targetPoint" />
          </mxGeometry>
        </mxCell>
        <mxCell id="VBnxZ7sW_NodpRz_AMPE-21" value="" style="endArrow=none;html=1;rounded=0;entryX=0;entryY=0.5;entryDx=0;entryDy=0;exitX=1;exitY=0.5;exitDx=0;exitDy=0;" parent="1" source="VBnxZ7sW_NodpRz_AMPE-6" target="VBnxZ7sW_NodpRz_AMPE-17" edge="1">
          <mxGeometry relative="1" as="geometry">
            <mxPoint x="1345" y="743" as="sourcePoint" />
            <mxPoint x="1395" y="776" as="targetPoint" />
          </mxGeometry>
        </mxCell>
        <mxCell id="VBnxZ7sW_NodpRz_AMPE-22" value="" style="endArrow=none;html=1;rounded=0;entryX=0;entryY=0.5;entryDx=0;entryDy=0;exitX=1;exitY=0;exitDx=0;exitDy=0;" parent="1" source="VBnxZ7sW_NodpRz_AMPE-6" target="VBnxZ7sW_NodpRz_AMPE-18" edge="1">
          <mxGeometry relative="1" as="geometry">
            <mxPoint x="1355" y="753" as="sourcePoint" />
            <mxPoint x="1405" y="786" as="targetPoint" />
          </mxGeometry>
        </mxCell>
      </root>
    </mxGraphModel>
  </diagram>
</mxfile>
